<?xml version="1.0" encoding="utf-8"?>
<!-- Generator: Adobe Illustrator 27.3.1, SVG Export Plug-In . SVG Version: 6.00 Build 0)  -->
<svg version="1.1" id="Layer_1" xmlns="http://www.w3.org/2000/svg" xmlns:xlink="http://www.w3.org/1999/xlink" x="0px" y="0px"
	 viewBox="0 0 1040.6 618.3" style="enable-background:new 0 0 1040.6 618.3;" xml:space="preserve">
<style type="text/css">
	.st0{fill:#FFFFFF;}
	.st1{fill:#FFE5D4;}
	.st2{fill:#FFCCAA;}
	.st3{fill:#FFB280;}
	.st4{fill:#FF9855;}
	.st5{fill:#FF7F2B;}
	.st6{fill:#FF6500;}
	.st7{fill:none;stroke:#FFFFFF;stroke-width:0.3107;stroke-miterlimit:10;}
</style>
<g>
	<g>
		<circle class="st0" cx="307.8" cy="307.8" r="307.7"/>
		<circle class="st1" cx="378.7" cy="308.3" r="307.7"/>
		<circle class="st2" cx="449.5" cy="308.7" r="307.7"/>
		<circle class="st3" cx="520.4" cy="309.2" r="307.7"/>
		<circle class="st4" cx="591.2" cy="309.6" r="307.7"/>
		<circle class="st5" cx="662.1" cy="310.1" r="307.7"/>
		<circle class="st6" cx="732.9" cy="310.5" r="307.7"/>
	</g>
	<g>
		<path class="st7" d="M307.8,615.5C137.9,615.5,0.2,477.7,0.2,307.8S137.9,0.2,307.8,0.2"/>
		<path class="st7" d="M315.7,615.5C145.8,615.5,8,477.8,8,307.9S145.8,0.2,315.7,0.2"/>
		<path class="st7" d="M323.6,615.6c-169.9,0-307.7-137.7-307.7-307.7S153.6,0.3,323.6,0.3"/>
		<path class="st7" d="M331.4,615.6C161.5,615.6,23.8,477.9,23.8,308S161.5,0.3,331.4,0.3"/>
		<path class="st7" d="M339.3,615.7C169.4,615.7,31.6,477.9,31.6,308S169.4,0.4,339.3,0.4"/>
		<path class="st7" d="M347.2,615.7C177.3,615.7,39.5,478,39.5,308.1S177.3,0.4,347.2,0.4"/>
		<path class="st7" d="M355,615.8C185.1,615.8,47.4,478,47.4,308.1S185.1,0.5,355,0.5"/>
		<path class="st7" d="M362.9,615.8C193,615.8,55.3,478.1,55.3,308.2S193,0.5,362.9,0.5"/>
		<path class="st7" d="M370.8,615.9c-169.9,0-307.7-137.7-307.7-307.7S200.9,0.6,370.8,0.6"/>
		<path class="st7" d="M378.7,615.9C208.8,615.9,71,478.2,71,308.3S208.8,0.6,378.7,0.6"/>
		<path class="st7" d="M386.5,616C216.6,616,78.9,478.2,78.9,308.3S216.6,0.7,386.5,0.7"/>
		<path class="st7" d="M394.4,616C224.5,616,86.8,478.3,86.8,308.4S224.5,0.7,394.4,0.7"/>
		<path class="st7" d="M402.3,616.1c-169.9,0-307.7-137.7-307.7-307.7S232.4,0.8,402.3,0.8"/>
		<path class="st7" d="M410.2,616.1c-169.9,0-307.7-137.7-307.7-307.7S240.2,0.8,410.2,0.8"/>
		<path class="st7" d="M418,616.2c-169.9,0-307.7-137.7-307.7-307.7S248.1,0.9,418,0.9"/>
		<path class="st7" d="M425.9,616.2c-169.9,0-307.7-137.7-307.7-307.7S256,0.9,425.9,0.9"/>
		<path class="st7" d="M433.8,616.3c-169.9,0-307.7-137.7-307.7-307.7S263.9,1,433.8,1"/>
		<path class="st7" d="M441.7,616.3C271.7,616.3,134,478.6,134,308.7S271.7,1,441.7,1"/>
		<path class="st7" d="M449.5,616.4c-169.9,0-307.7-137.7-307.7-307.7S279.6,1.1,449.5,1.1"/>
		<path class="st7" d="M457.4,616.4c-169.9,0-307.7-137.7-307.7-307.7S287.5,1.1,457.4,1.1"/>
		<path class="st7" d="M465.3,616.5c-169.9,0-307.7-137.7-307.7-307.7S295.4,1.2,465.3,1.2"/>
		<path class="st7" d="M473.1,616.5c-169.9,0-307.7-137.7-307.7-307.7S303.2,1.2,473.1,1.2"/>
		<path class="st7" d="M481,616.6c-169.9,0-307.7-137.7-307.7-307.7S311.1,1.3,481,1.3"/>
		<path class="st7" d="M488.9,616.6C319,616.6,181.2,478.9,181.2,309S319,1.3,488.9,1.3"/>
		<path class="st7" d="M496.8,616.7c-169.9,0-307.7-137.7-307.7-307.7S326.8,1.4,496.8,1.4"/>
		<path class="st7" d="M504.6,616.7C334.7,616.7,197,479,197,309.1S334.7,1.4,504.6,1.4"/>
		<path class="st7" d="M512.5,616.8c-169.9,0-307.7-137.7-307.7-307.7S342.6,1.5,512.5,1.5"/>
		<path class="st7" d="M520.4,616.8c-169.9,0-307.7-137.7-307.7-307.7S350.5,1.5,520.4,1.5"/>
		<path class="st7" d="M528.3,616.9c-169.9,0-307.7-137.7-307.7-307.7S358.3,1.6,528.3,1.6"/>
		<path class="st7" d="M536.1,616.9c-169.9,0-307.7-137.7-307.7-307.7S366.2,1.6,536.1,1.6"/>
		<path class="st7" d="M544,617c-169.9,0-307.7-137.7-307.7-307.7S374.1,1.7,544,1.7"/>
		<path class="st7" d="M551.9,617C382,617,244.2,479.3,244.2,309.4S382,1.7,551.9,1.7"/>
		<path class="st7" d="M559.7,617.1c-169.9,0-307.7-137.7-307.7-307.7S389.8,1.8,559.7,1.8"/>
		<path class="st7" d="M567.6,617.1C397.7,617.1,260,479.4,260,309.5S397.7,1.8,567.6,1.8"/>
		<path class="st7" d="M575.5,617.2c-169.9,0-307.7-137.7-307.7-307.7S405.6,1.9,575.5,1.9"/>
		<path class="st7" d="M583.4,617.2c-169.9,0-307.7-137.7-307.7-307.7S413.5,1.9,583.4,1.9"/>
		<path class="st7" d="M591.2,617.3c-169.9,0-307.7-137.7-307.7-307.7S421.3,2,591.2,2"/>
		<path class="st7" d="M599.1,617.3c-169.9,0-307.7-137.7-307.7-307.7S429.2,2,599.1,2"/>
		<path class="st7" d="M607,617.4c-169.9,0-307.7-137.7-307.7-307.7S437.1,2.1,607,2.1"/>
		<path class="st7" d="M614.9,617.4c-169.9,0-307.7-137.7-307.7-307.7S444.9,2.1,614.9,2.1"/>
		<path class="st7" d="M622.7,617.5c-169.9,0-307.7-137.7-307.7-307.7S452.8,2.2,622.7,2.2"/>
		<path class="st7" d="M630.6,617.5c-169.9,0-307.7-137.7-307.7-307.7S460.7,2.2,630.6,2.2"/>
		<path class="st7" d="M638.5,617.6c-169.9,0-307.7-137.7-307.7-307.7S468.6,2.3,638.5,2.3"/>
		<path class="st7" d="M646.3,617.6c-169.9,0-307.7-137.7-307.7-307.7S476.4,2.3,646.3,2.3"/>
		<path class="st7" d="M654.2,617.7c-169.9,0-307.7-137.7-307.7-307.7S484.3,2.4,654.2,2.4"/>
		<path class="st7" d="M662.1,617.7c-169.9,0-307.7-137.7-307.7-307.7S492.2,2.4,662.1,2.4"/>
		<path class="st7" d="M670,617.8c-169.9,0-307.7-137.7-307.7-307.7S500.1,2.5,670,2.5"/>
		<path class="st7" d="M677.8,617.8c-169.9,0-307.7-137.7-307.7-307.7S507.9,2.5,677.8,2.5"/>
		<path class="st7" d="M685.7,617.9c-169.9,0-307.7-137.7-307.7-307.7S515.8,2.6,685.7,2.6"/>
		<path class="st7" d="M693.6,617.9c-169.9,0-307.7-137.7-307.7-307.7S523.7,2.6,693.6,2.6"/>
		<path class="st7" d="M701.5,618c-169.9,0-307.7-137.7-307.7-307.7S531.5,2.7,701.5,2.7"/>
		<path class="st7" d="M709.3,618c-169.9,0-307.7-137.7-307.7-307.7S539.4,2.7,709.3,2.7"/>
		<path class="st7" d="M717.2,618.1c-169.9,0-307.7-137.7-307.7-307.7S547.3,2.8,717.2,2.8"/>
		<path class="st7" d="M725.1,618.1c-169.9,0-307.7-137.7-307.7-307.7S555.2,2.8,725.1,2.8"/>
		<path class="st7" d="M732.9,618.2c-169.9,0-307.7-137.7-307.7-307.7S563,2.9,732.9,2.9"/>
	</g>
</g>
</svg>
